<?xml version="1.0" encoding="utf-8" standalone="no"?>
<!DOCTYPE svg PUBLIC "-//W3C//DTD SVG 1.1//EN"
  "http://www.w3.org/Graphics/SVG/1.1/DTD/svg11.dtd">
<!-- Created with matplotlib (https://matplotlib.org/) -->
<svg height="398.335938pt" version="1.1" viewBox="0 0 617.526195 398.335938" width="617.526195pt" xmlns="http://www.w3.org/2000/svg" xmlns:xlink="http://www.w3.org/1999/xlink">
 <metadata>
  <rdf:RDF xmlns:cc="http://creativecommons.org/ns#" xmlns:dc="http://purl.org/dc/elements/1.1/" xmlns:rdf="http://www.w3.org/1999/02/22-rdf-syntax-ns#">
   <cc:Work>
    <dc:type rdf:resource="http://purl.org/dc/dcmitype/StillImage"/>
    <dc:date>2020-08-31T13:58:52.701416</dc:date>
    <dc:format>image/svg+xml</dc:format>
    <dc:creator>
     <cc:Agent>
      <dc:title>Matplotlib v3.3.1, https://matplotlib.org/</dc:title>
     </cc:Agent>
    </dc:creator>
   </cc:Work>
  </rdf:RDF>
 </metadata>
 <defs>
  <style type="text/css">*{stroke-linecap:butt;stroke-linejoin:round;}</style>
 </defs>
 <g id="figure_1">
  <g id="patch_1">
   <path d="M 0 398.335938 
L 617.526195 398.335938 
L 617.526195 0 
L 0 0 
z
" style="fill:#ffffff;"/>
  </g>
  <g id="axes_1">
   <g id="patch_2">
    <path d="M 51.224 353.037188 
L 609.224 353.037188 
L 609.224 26.877187 
L 51.224 26.877187 
z
" style="fill:#e5e5e5;"/>
   </g>
   <g id="matplotlib.axis_1">
    <g id="xtick_1">
     <g id="line2d_1">
      <path clip-path="url(#p69e0cf21f8)" d="M 79.374849 353.037188 
L 79.374849 26.877187 
" style="fill:none;stroke:#ffffff;stroke-linecap:square;stroke-width:0.8;"/>
     </g>
     <g id="line2d_2">
      <defs>
       <path d="M 0 0 
L 0 3.5 
" id="mf0bcf558b3" style="stroke:#555555;stroke-width:0.8;"/>
      </defs>
      <g>
       <use style="fill:#555555;stroke:#555555;stroke-width:0.8;" x="79.374849" xlink:href="#mf0bcf558b3" y="353.037188"/>
      </g>
     </g>
     <g id="text_1">
      <!-- 2019-09 -->
      <g style="fill:#555555;" transform="translate(58.483443 367.635625)scale(0.1 -0.1)">
       <defs>
        <path d="M 19.1875 8.296875 
L 53.609375 8.296875 
L 53.609375 0 
L 7.328125 0 
L 7.328125 8.296875 
Q 12.9375 14.109375 22.625 23.890625 
Q 32.328125 33.6875 34.8125 36.53125 
Q 39.546875 41.84375 41.421875 45.53125 
Q 43.3125 49.21875 43.3125 52.78125 
Q 43.3125 58.59375 39.234375 62.25 
Q 35.15625 65.921875 28.609375 65.921875 
Q 23.96875 65.921875 18.8125 64.3125 
Q 13.671875 62.703125 7.8125 59.421875 
L 7.8125 69.390625 
Q 13.765625 71.78125 18.9375 73 
Q 24.125 74.21875 28.421875 74.21875 
Q 39.75 74.21875 46.484375 68.546875 
Q 53.21875 62.890625 53.21875 53.421875 
Q 53.21875 48.921875 51.53125 44.890625 
Q 49.859375 40.875 45.40625 35.40625 
Q 44.1875 33.984375 37.640625 27.21875 
Q 31.109375 20.453125 19.1875 8.296875 
z
" id="DejaVuSans-50"/>
        <path d="M 31.78125 66.40625 
Q 24.171875 66.40625 20.328125 58.90625 
Q 16.5 51.421875 16.5 36.375 
Q 16.5 21.390625 20.328125 13.890625 
Q 24.171875 6.390625 31.78125 6.390625 
Q 39.453125 6.390625 43.28125 13.890625 
Q 47.125 21.390625 47.125 36.375 
Q 47.125 51.421875 43.28125 58.90625 
Q 39.453125 66.40625 31.78125 66.40625 
z
M 31.78125 74.21875 
Q 44.046875 74.21875 50.515625 64.515625 
Q 56.984375 54.828125 56.984375 36.375 
Q 56.984375 17.96875 50.515625 8.265625 
Q 44.046875 -1.421875 31.78125 -1.421875 
Q 19.53125 -1.421875 13.0625 8.265625 
Q 6.59375 17.96875 6.59375 36.375 
Q 6.59375 54.828125 13.0625 64.515625 
Q 19.53125 74.21875 31.78125 74.21875 
z
" id="DejaVuSans-48"/>
        <path d="M 12.40625 8.296875 
L 28.515625 8.296875 
L 28.515625 63.921875 
L 10.984375 60.40625 
L 10.984375 69.390625 
L 28.421875 72.90625 
L 38.28125 72.90625 
L 38.28125 8.296875 
L 54.390625 8.296875 
L 54.390625 0 
L 12.40625 0 
z
" id="DejaVuSans-49"/>
        <path d="M 10.984375 1.515625 
L 10.984375 10.5 
Q 14.703125 8.734375 18.5 7.8125 
Q 22.3125 6.890625 25.984375 6.890625 
Q 35.75 6.890625 40.890625 13.453125 
Q 46.046875 20.015625 46.78125 33.40625 
Q 43.953125 29.203125 39.59375 26.953125 
Q 35.25 24.703125 29.984375 24.703125 
Q 19.046875 24.703125 12.671875 31.3125 
Q 6.296875 37.9375 6.296875 49.421875 
Q 6.296875 60.640625 12.9375 67.421875 
Q 19.578125 74.21875 30.609375 74.21875 
Q 43.265625 74.21875 49.921875 64.515625 
Q 56.59375 54.828125 56.59375 36.375 
Q 56.59375 19.140625 48.40625 8.859375 
Q 40.234375 -1.421875 26.421875 -1.421875 
Q 22.703125 -1.421875 18.890625 -0.6875 
Q 15.09375 0.046875 10.984375 1.515625 
z
M 30.609375 32.421875 
Q 37.25 32.421875 41.125 36.953125 
Q 45.015625 41.5 45.015625 49.421875 
Q 45.015625 57.28125 41.125 61.84375 
Q 37.25 66.40625 30.609375 66.40625 
Q 23.96875 66.40625 20.09375 61.84375 
Q 16.21875 57.28125 16.21875 49.421875 
Q 16.21875 41.5 20.09375 36.953125 
Q 23.96875 32.421875 30.609375 32.421875 
z
" id="DejaVuSans-57"/>
        <path d="M 4.890625 31.390625 
L 31.203125 31.390625 
L 31.203125 23.390625 
L 4.890625 23.390625 
z
" id="DejaVuSans-45"/>
       </defs>
       <use xlink:href="#DejaVuSans-50"/>
       <use x="63.623047" xlink:href="#DejaVuSans-48"/>
       <use x="127.246094" xlink:href="#DejaVuSans-49"/>
       <use x="190.869141" xlink:href="#DejaVuSans-57"/>
       <use x="254.492188" xlink:href="#DejaVuSans-45"/>
       <use x="290.576172" xlink:href="#DejaVuSans-48"/>
       <use x="354.199219" xlink:href="#DejaVuSans-57"/>
      </g>
     </g>
    </g>
    <g id="xtick_2">
     <g id="line2d_3">
      <path clip-path="url(#p69e0cf21f8)" d="M 164.384839 353.037188 
L 164.384839 26.877187 
" style="fill:none;stroke:#ffffff;stroke-linecap:square;stroke-width:0.8;"/>
     </g>
     <g id="line2d_4">
      <g>
       <use style="fill:#555555;stroke:#555555;stroke-width:0.8;" x="164.384839" xlink:href="#mf0bcf558b3" y="353.037188"/>
      </g>
     </g>
     <g id="text_2">
      <!-- 2019-11 -->
      <g style="fill:#555555;" transform="translate(143.493433 367.635625)scale(0.1 -0.1)">
       <use xlink:href="#DejaVuSans-50"/>
       <use x="63.623047" xlink:href="#DejaVuSans-48"/>
       <use x="127.246094" xlink:href="#DejaVuSans-49"/>
       <use x="190.869141" xlink:href="#DejaVuSans-57"/>
       <use x="254.492188" xlink:href="#DejaVuSans-45"/>
       <use x="290.576172" xlink:href="#DejaVuSans-49"/>
       <use x="354.199219" xlink:href="#DejaVuSans-49"/>
      </g>
     </g>
    </g>
    <g id="xtick_3">
     <g id="line2d_5">
      <path clip-path="url(#p69e0cf21f8)" d="M 249.394829 353.037188 
L 249.394829 26.877187 
" style="fill:none;stroke:#ffffff;stroke-linecap:square;stroke-width:0.8;"/>
     </g>
     <g id="line2d_6">
      <g>
       <use style="fill:#555555;stroke:#555555;stroke-width:0.8;" x="249.394829" xlink:href="#mf0bcf558b3" y="353.037188"/>
      </g>
     </g>
     <g id="text_3">
      <!-- 2020-01 -->
      <g style="fill:#555555;" transform="translate(228.503423 367.635625)scale(0.1 -0.1)">
       <use xlink:href="#DejaVuSans-50"/>
       <use x="63.623047" xlink:href="#DejaVuSans-48"/>
       <use x="127.246094" xlink:href="#DejaVuSans-50"/>
       <use x="190.869141" xlink:href="#DejaVuSans-48"/>
       <use x="254.492188" xlink:href="#DejaVuSans-45"/>
       <use x="290.576172" xlink:href="#DejaVuSans-48"/>
       <use x="354.199219" xlink:href="#DejaVuSans-49"/>
      </g>
     </g>
    </g>
    <g id="xtick_4">
     <g id="line2d_7">
      <path clip-path="url(#p69e0cf21f8)" d="M 333.011213 353.037188 
L 333.011213 26.877187 
" style="fill:none;stroke:#ffffff;stroke-linecap:square;stroke-width:0.8;"/>
     </g>
     <g id="line2d_8">
      <g>
       <use style="fill:#555555;stroke:#555555;stroke-width:0.8;" x="333.011213" xlink:href="#mf0bcf558b3" y="353.037188"/>
      </g>
     </g>
     <g id="text_4">
      <!-- 2020-03 -->
      <g style="fill:#555555;" transform="translate(312.119807 367.635625)scale(0.1 -0.1)">
       <defs>
        <path d="M 40.578125 39.3125 
Q 47.65625 37.796875 51.625 33 
Q 55.609375 28.21875 55.609375 21.1875 
Q 55.609375 10.40625 48.1875 4.484375 
Q 40.765625 -1.421875 27.09375 -1.421875 
Q 22.515625 -1.421875 17.65625 -0.515625 
Q 12.796875 0.390625 7.625 2.203125 
L 7.625 11.71875 
Q 11.71875 9.328125 16.59375 8.109375 
Q 21.484375 6.890625 26.8125 6.890625 
Q 36.078125 6.890625 40.9375 10.546875 
Q 45.796875 14.203125 45.796875 21.1875 
Q 45.796875 27.640625 41.28125 31.265625 
Q 36.765625 34.90625 28.71875 34.90625 
L 20.21875 34.90625 
L 20.21875 43.015625 
L 29.109375 43.015625 
Q 36.375 43.015625 40.234375 45.921875 
Q 44.09375 48.828125 44.09375 54.296875 
Q 44.09375 59.90625 40.109375 62.90625 
Q 36.140625 65.921875 28.71875 65.921875 
Q 24.65625 65.921875 20.015625 65.03125 
Q 15.375 64.15625 9.8125 62.3125 
L 9.8125 71.09375 
Q 15.4375 72.65625 20.34375 73.4375 
Q 25.25 74.21875 29.59375 74.21875 
Q 40.828125 74.21875 47.359375 69.109375 
Q 53.90625 64.015625 53.90625 55.328125 
Q 53.90625 49.265625 50.4375 45.09375 
Q 46.96875 40.921875 40.578125 39.3125 
z
" id="DejaVuSans-51"/>
       </defs>
       <use xlink:href="#DejaVuSans-50"/>
       <use x="63.623047" xlink:href="#DejaVuSans-48"/>
       <use x="127.246094" xlink:href="#DejaVuSans-50"/>
       <use x="190.869141" xlink:href="#DejaVuSans-48"/>
       <use x="254.492188" xlink:href="#DejaVuSans-45"/>
       <use x="290.576172" xlink:href="#DejaVuSans-48"/>
       <use x="354.199219" xlink:href="#DejaVuSans-51"/>
      </g>
     </g>
    </g>
    <g id="xtick_5">
     <g id="line2d_9">
      <path clip-path="url(#p69e0cf21f8)" d="M 418.021203 353.037188 
L 418.021203 26.877187 
" style="fill:none;stroke:#ffffff;stroke-linecap:square;stroke-width:0.8;"/>
     </g>
     <g id="line2d_10">
      <g>
       <use style="fill:#555555;stroke:#555555;stroke-width:0.8;" x="418.021203" xlink:href="#mf0bcf558b3" y="353.037188"/>
      </g>
     </g>
     <g id="text_5">
      <!-- 2020-05 -->
      <g style="fill:#555555;" transform="translate(397.129797 367.635625)scale(0.1 -0.1)">
       <defs>
        <path d="M 10.796875 72.90625 
L 49.515625 72.90625 
L 49.515625 64.59375 
L 19.828125 64.59375 
L 19.828125 46.734375 
Q 21.96875 47.46875 24.109375 47.828125 
Q 26.265625 48.1875 28.421875 48.1875 
Q 40.625 48.1875 47.75 41.5 
Q 54.890625 34.8125 54.890625 23.390625 
Q 54.890625 11.625 47.5625 5.09375 
Q 40.234375 -1.421875 26.90625 -1.421875 
Q 22.3125 -1.421875 17.546875 -0.640625 
Q 12.796875 0.140625 7.71875 1.703125 
L 7.71875 11.625 
Q 12.109375 9.234375 16.796875 8.0625 
Q 21.484375 6.890625 26.703125 6.890625 
Q 35.15625 6.890625 40.078125 11.328125 
Q 45.015625 15.765625 45.015625 23.390625 
Q 45.015625 31 40.078125 35.4375 
Q 35.15625 39.890625 26.703125 39.890625 
Q 22.75 39.890625 18.8125 39.015625 
Q 14.890625 38.140625 10.796875 36.28125 
z
" id="DejaVuSans-53"/>
       </defs>
       <use xlink:href="#DejaVuSans-50"/>
       <use x="63.623047" xlink:href="#DejaVuSans-48"/>
       <use x="127.246094" xlink:href="#DejaVuSans-50"/>
       <use x="190.869141" xlink:href="#DejaVuSans-48"/>
       <use x="254.492188" xlink:href="#DejaVuSans-45"/>
       <use x="290.576172" xlink:href="#DejaVuSans-48"/>
       <use x="354.199219" xlink:href="#DejaVuSans-53"/>
      </g>
     </g>
    </g>
    <g id="xtick_6">
     <g id="line2d_11">
      <path clip-path="url(#p69e0cf21f8)" d="M 503.031193 353.037188 
L 503.031193 26.877187 
" style="fill:none;stroke:#ffffff;stroke-linecap:square;stroke-width:0.8;"/>
     </g>
     <g id="line2d_12">
      <g>
       <use style="fill:#555555;stroke:#555555;stroke-width:0.8;" x="503.031193" xlink:href="#mf0bcf558b3" y="353.037188"/>
      </g>
     </g>
     <g id="text_6">
      <!-- 2020-07 -->
      <g style="fill:#555555;" transform="translate(482.139787 367.635625)scale(0.1 -0.1)">
       <defs>
        <path d="M 8.203125 72.90625 
L 55.078125 72.90625 
L 55.078125 68.703125 
L 28.609375 0 
L 18.3125 0 
L 43.21875 64.59375 
L 8.203125 64.59375 
z
" id="DejaVuSans-55"/>
       </defs>
       <use xlink:href="#DejaVuSans-50"/>
       <use x="63.623047" xlink:href="#DejaVuSans-48"/>
       <use x="127.246094" xlink:href="#DejaVuSans-50"/>
       <use x="190.869141" xlink:href="#DejaVuSans-48"/>
       <use x="254.492188" xlink:href="#DejaVuSans-45"/>
       <use x="290.576172" xlink:href="#DejaVuSans-48"/>
       <use x="354.199219" xlink:href="#DejaVuSans-55"/>
      </g>
     </g>
    </g>
    <g id="xtick_7">
     <g id="line2d_13">
      <path clip-path="url(#p69e0cf21f8)" d="M 589.434789 353.037188 
L 589.434789 26.877187 
" style="fill:none;stroke:#ffffff;stroke-linecap:square;stroke-width:0.8;"/>
     </g>
     <g id="line2d_14">
      <g>
       <use style="fill:#555555;stroke:#555555;stroke-width:0.8;" x="589.434789" xlink:href="#mf0bcf558b3" y="353.037188"/>
      </g>
     </g>
     <g id="text_7">
      <!-- 2020-09 -->
      <g style="fill:#555555;" transform="translate(568.543383 367.635625)scale(0.1 -0.1)">
       <use xlink:href="#DejaVuSans-50"/>
       <use x="63.623047" xlink:href="#DejaVuSans-48"/>
       <use x="127.246094" xlink:href="#DejaVuSans-50"/>
       <use x="190.869141" xlink:href="#DejaVuSans-48"/>
       <use x="254.492188" xlink:href="#DejaVuSans-45"/>
       <use x="290.576172" xlink:href="#DejaVuSans-48"/>
       <use x="354.199219" xlink:href="#DejaVuSans-57"/>
      </g>
     </g>
    </g>
    <g id="text_8">
     <!-- Date -->
     <g style="fill:#555555;" transform="translate(308.712594 387.3925)scale(0.18 -0.18)">
      <defs>
       <path d="M 16.890625 72.90625 
L 38.09375 72.90625 
Q 54.984375 72.90625 63.59375 65.75 
Q 72.21875 58.59375 72.21875 44.484375 
Q 72.21875 35.15625 68.9375 26.53125 
Q 65.671875 17.921875 59.90625 12.015625 
Q 54.109375 5.953125 45.171875 2.96875 
Q 36.234375 0 24.03125 0 
L 2.6875 0 
z
M 25.203125 64.796875 
L 14.203125 8.109375 
L 27.09375 8.109375 
Q 43.65625 8.109375 52.734375 17.625 
Q 61.8125 27.15625 61.8125 44.484375 
Q 61.8125 54.984375 55.953125 59.890625 
Q 50.09375 64.796875 37.59375 64.796875 
z
" id="DejaVuSans-Oblique-68"/>
       <path d="M 53.71875 31.203125 
L 47.609375 0 
L 38.625 0 
L 40.28125 8.296875 
Q 36.328125 3.421875 31.265625 1 
Q 26.21875 -1.421875 20.015625 -1.421875 
Q 13.03125 -1.421875 8.5625 2.84375 
Q 4.109375 7.125 4.109375 13.8125 
Q 4.109375 23.390625 11.75 28.953125 
Q 19.390625 34.515625 32.8125 34.515625 
L 45.3125 34.515625 
L 45.796875 36.921875 
Q 45.90625 37.3125 45.953125 37.765625 
Q 46 38.234375 46 39.203125 
Q 46 43.5625 42.453125 45.96875 
Q 38.921875 48.390625 32.515625 48.390625 
Q 28.125 48.390625 23.5 47.265625 
Q 18.890625 46.140625 14.015625 43.890625 
L 15.578125 52.203125 
Q 20.65625 54.109375 25.515625 55.046875 
Q 30.375 56 34.90625 56 
Q 44.578125 56 49.625 51.796875 
Q 54.6875 47.609375 54.6875 39.59375 
Q 54.6875 37.984375 54.4375 35.8125 
Q 54.203125 33.640625 53.71875 31.203125 
z
M 44 27.484375 
L 35.015625 27.484375 
Q 23.96875 27.484375 18.671875 24.53125 
Q 13.375 21.578125 13.375 15.375 
Q 13.375 11.078125 16.078125 8.640625 
Q 18.796875 6.203125 23.578125 6.203125 
Q 30.90625 6.203125 36.375 11.453125 
Q 41.84375 16.703125 43.609375 25.484375 
z
" id="DejaVuSans-Oblique-97"/>
       <path d="M 42.28125 54.6875 
L 40.921875 47.703125 
L 23 47.703125 
L 17.1875 18.015625 
Q 16.890625 16.359375 16.75 15.234375 
Q 16.609375 14.109375 16.609375 13.484375 
Q 16.609375 10.359375 18.484375 8.9375 
Q 20.359375 7.515625 24.515625 7.515625 
L 33.59375 7.515625 
L 32.078125 0 
L 23.484375 0 
Q 15.484375 0 11.546875 3.125 
Q 7.625 6.25 7.625 12.59375 
Q 7.625 13.71875 7.765625 15.0625 
Q 7.90625 16.40625 8.203125 18.015625 
L 14.015625 47.703125 
L 6.390625 47.703125 
L 7.8125 54.6875 
L 15.28125 54.6875 
L 18.3125 70.21875 
L 27.296875 70.21875 
L 24.3125 54.6875 
z
" id="DejaVuSans-Oblique-116"/>
       <path d="M 48.09375 32.234375 
Q 48.25 33.015625 48.3125 33.84375 
Q 48.390625 34.671875 48.390625 35.5 
Q 48.390625 41.453125 44.890625 44.921875 
Q 41.40625 48.390625 35.40625 48.390625 
Q 28.71875 48.390625 23.578125 44.15625 
Q 18.453125 39.9375 15.828125 32.171875 
z
M 55.90625 25.203125 
L 14.109375 25.203125 
Q 13.8125 23.34375 13.71875 22.265625 
Q 13.625 21.1875 13.625 20.40625 
Q 13.625 13.625 17.796875 9.90625 
Q 21.96875 6.203125 29.59375 6.203125 
Q 35.453125 6.203125 40.671875 7.515625 
Q 45.90625 8.84375 50.390625 11.375 
L 48.6875 2.484375 
Q 43.84375 0.53125 38.6875 -0.4375 
Q 33.546875 -1.421875 28.21875 -1.421875 
Q 16.84375 -1.421875 10.71875 4.015625 
Q 4.59375 9.46875 4.59375 19.484375 
Q 4.59375 28.03125 7.640625 35.375 
Q 10.6875 42.71875 16.609375 48.484375 
Q 20.40625 52.09375 25.65625 54.046875 
Q 30.90625 56 36.8125 56 
Q 46.09375 56 51.578125 50.4375 
Q 57.078125 44.875 57.078125 35.5 
Q 57.078125 33.25 56.78125 30.6875 
Q 56.5 28.125 55.90625 25.203125 
z
" id="DejaVuSans-Oblique-101"/>
      </defs>
      <use xlink:href="#DejaVuSans-Oblique-68"/>
      <use x="77.001953" xlink:href="#DejaVuSans-Oblique-97"/>
      <use x="138.28125" xlink:href="#DejaVuSans-Oblique-116"/>
      <use x="177.490234" xlink:href="#DejaVuSans-Oblique-101"/>
     </g>
    </g>
   </g>
   <g id="matplotlib.axis_2">
    <g id="ytick_1">
     <g id="line2d_15">
      <path clip-path="url(#p69e0cf21f8)" d="M 51.224 333.903833 
L 609.224 333.903833 
" style="fill:none;stroke:#ffffff;stroke-linecap:square;stroke-width:0.8;"/>
     </g>
     <g id="line2d_16">
      <defs>
       <path d="M 0 0 
L -3.5 0 
" id="m913e73b001" style="stroke:#555555;stroke-width:0.8;"/>
      </defs>
      <g>
       <use style="fill:#555555;stroke:#555555;stroke-width:0.8;" x="51.224" xlink:href="#m913e73b001" y="333.903833"/>
      </g>
     </g>
     <g id="text_9">
      <!-- 50 -->
      <g style="fill:#555555;" transform="translate(31.499 337.703051)scale(0.1 -0.1)">
       <use xlink:href="#DejaVuSans-53"/>
       <use x="63.623047" xlink:href="#DejaVuSans-48"/>
      </g>
     </g>
    </g>
    <g id="ytick_2">
     <g id="line2d_17">
      <path clip-path="url(#p69e0cf21f8)" d="M 51.224 297.172068 
L 609.224 297.172068 
" style="fill:none;stroke:#ffffff;stroke-linecap:square;stroke-width:0.8;"/>
     </g>
     <g id="line2d_18">
      <g>
       <use style="fill:#555555;stroke:#555555;stroke-width:0.8;" x="51.224" xlink:href="#m913e73b001" y="297.172068"/>
      </g>
     </g>
     <g id="text_10">
      <!-- 100 -->
      <g style="fill:#555555;" transform="translate(25.1365 300.971286)scale(0.1 -0.1)">
       <use xlink:href="#DejaVuSans-49"/>
       <use x="63.623047" xlink:href="#DejaVuSans-48"/>
       <use x="127.246094" xlink:href="#DejaVuSans-48"/>
      </g>
     </g>
    </g>
    <g id="ytick_3">
     <g id="line2d_19">
      <path clip-path="url(#p69e0cf21f8)" d="M 51.224 260.440303 
L 609.224 260.440303 
" style="fill:none;stroke:#ffffff;stroke-linecap:square;stroke-width:0.8;"/>
     </g>
     <g id="line2d_20">
      <g>
       <use style="fill:#555555;stroke:#555555;stroke-width:0.8;" x="51.224" xlink:href="#m913e73b001" y="260.440303"/>
      </g>
     </g>
     <g id="text_11">
      <!-- 150 -->
      <g style="fill:#555555;" transform="translate(25.1365 264.239521)scale(0.1 -0.1)">
       <use xlink:href="#DejaVuSans-49"/>
       <use x="63.623047" xlink:href="#DejaVuSans-53"/>
       <use x="127.246094" xlink:href="#DejaVuSans-48"/>
      </g>
     </g>
    </g>
    <g id="ytick_4">
     <g id="line2d_21">
      <path clip-path="url(#p69e0cf21f8)" d="M 51.224 223.708538 
L 609.224 223.708538 
" style="fill:none;stroke:#ffffff;stroke-linecap:square;stroke-width:0.8;"/>
     </g>
     <g id="line2d_22">
      <g>
       <use style="fill:#555555;stroke:#555555;stroke-width:0.8;" x="51.224" xlink:href="#m913e73b001" y="223.708538"/>
      </g>
     </g>
     <g id="text_12">
      <!-- 200 -->
      <g style="fill:#555555;" transform="translate(25.1365 227.507756)scale(0.1 -0.1)">
       <use xlink:href="#DejaVuSans-50"/>
       <use x="63.623047" xlink:href="#DejaVuSans-48"/>
       <use x="127.246094" xlink:href="#DejaVuSans-48"/>
      </g>
     </g>
    </g>
    <g id="ytick_5">
     <g id="line2d_23">
      <path clip-path="url(#p69e0cf21f8)" d="M 51.224 186.976773 
L 609.224 186.976773 
" style="fill:none;stroke:#ffffff;stroke-linecap:square;stroke-width:0.8;"/>
     </g>
     <g id="line2d_24">
      <g>
       <use style="fill:#555555;stroke:#555555;stroke-width:0.8;" x="51.224" xlink:href="#m913e73b001" y="186.976773"/>
      </g>
     </g>
     <g id="text_13">
      <!-- 250 -->
      <g style="fill:#555555;" transform="translate(25.1365 190.775991)scale(0.1 -0.1)">
       <use xlink:href="#DejaVuSans-50"/>
       <use x="63.623047" xlink:href="#DejaVuSans-53"/>
       <use x="127.246094" xlink:href="#DejaVuSans-48"/>
      </g>
     </g>
    </g>
    <g id="ytick_6">
     <g id="line2d_25">
      <path clip-path="url(#p69e0cf21f8)" d="M 51.224 150.245008 
L 609.224 150.245008 
" style="fill:none;stroke:#ffffff;stroke-linecap:square;stroke-width:0.8;"/>
     </g>
     <g id="line2d_26">
      <g>
       <use style="fill:#555555;stroke:#555555;stroke-width:0.8;" x="51.224" xlink:href="#m913e73b001" y="150.245008"/>
      </g>
     </g>
     <g id="text_14">
      <!-- 300 -->
      <g style="fill:#555555;" transform="translate(25.1365 154.044226)scale(0.1 -0.1)">
       <use xlink:href="#DejaVuSans-51"/>
       <use x="63.623047" xlink:href="#DejaVuSans-48"/>
       <use x="127.246094" xlink:href="#DejaVuSans-48"/>
      </g>
     </g>
    </g>
    <g id="ytick_7">
     <g id="line2d_27">
      <path clip-path="url(#p69e0cf21f8)" d="M 51.224 113.513243 
L 609.224 113.513243 
" style="fill:none;stroke:#ffffff;stroke-linecap:square;stroke-width:0.8;"/>
     </g>
     <g id="line2d_28">
      <g>
       <use style="fill:#555555;stroke:#555555;stroke-width:0.8;" x="51.224" xlink:href="#m913e73b001" y="113.513243"/>
      </g>
     </g>
     <g id="text_15">
      <!-- 350 -->
      <g style="fill:#555555;" transform="translate(25.1365 117.312461)scale(0.1 -0.1)">
       <use xlink:href="#DejaVuSans-51"/>
       <use x="63.623047" xlink:href="#DejaVuSans-53"/>
       <use x="127.246094" xlink:href="#DejaVuSans-48"/>
      </g>
     </g>
    </g>
    <g id="ytick_8">
     <g id="line2d_29">
      <path clip-path="url(#p69e0cf21f8)" d="M 51.224 76.781478 
L 609.224 76.781478 
" style="fill:none;stroke:#ffffff;stroke-linecap:square;stroke-width:0.8;"/>
     </g>
     <g id="line2d_30">
      <g>
       <use style="fill:#555555;stroke:#555555;stroke-width:0.8;" x="51.224" xlink:href="#m913e73b001" y="76.781478"/>
      </g>
     </g>
     <g id="text_16">
      <!-- 400 -->
      <g style="fill:#555555;" transform="translate(25.1365 80.580696)scale(0.1 -0.1)">
       <defs>
        <path d="M 37.796875 64.3125 
L 12.890625 25.390625 
L 37.796875 25.390625 
z
M 35.203125 72.90625 
L 47.609375 72.90625 
L 47.609375 25.390625 
L 58.015625 25.390625 
L 58.015625 17.1875 
L 47.609375 17.1875 
L 47.609375 0 
L 37.796875 0 
L 37.796875 17.1875 
L 4.890625 17.1875 
L 4.890625 26.703125 
z
" id="DejaVuSans-52"/>
       </defs>
       <use xlink:href="#DejaVuSans-52"/>
       <use x="63.623047" xlink:href="#DejaVuSans-48"/>
       <use x="127.246094" xlink:href="#DejaVuSans-48"/>
      </g>
     </g>
    </g>
    <g id="ytick_9">
     <g id="line2d_31">
      <path clip-path="url(#p69e0cf21f8)" d="M 51.224 40.049713 
L 609.224 40.049713 
" style="fill:none;stroke:#ffffff;stroke-linecap:square;stroke-width:0.8;"/>
     </g>
     <g id="line2d_32">
      <g>
       <use style="fill:#555555;stroke:#555555;stroke-width:0.8;" x="51.224" xlink:href="#m913e73b001" y="40.049713"/>
      </g>
     </g>
     <g id="text_17">
      <!-- 450 -->
      <g style="fill:#555555;" transform="translate(25.1365 43.848931)scale(0.1 -0.1)">
       <use xlink:href="#DejaVuSans-52"/>
       <use x="63.623047" xlink:href="#DejaVuSans-53"/>
       <use x="127.246094" xlink:href="#DejaVuSans-48"/>
      </g>
     </g>
    </g>
    <g id="text_18">
     <!-- $ -->
     <g style="fill:#555555;" transform="translate(18.14175 194.538187)rotate(-90)scale(0.144 -0.144)">
      <defs>
       <path d="M 29.296875 7.078125 
Q 36.078125 7.375 40.03125 10.515625 
Q 44 13.671875 44 18.703125 
Q 44 22.796875 41.5 25.046875 
Q 39.015625 27.296875 33.40625 28.21875 
z
M 34.1875 57.625 
Q 27.734375 56.9375 24.0625 53.8125 
Q 20.40625 50.6875 20.40625 45.796875 
Q 20.40625 42.390625 22.71875 40.453125 
Q 25.046875 38.53125 30.328125 37.59375 
z
M 56.984375 61.625 
L 55.328125 52.78125 
Q 51.125 55.03125 47.046875 56.25 
Q 42.96875 57.46875 39.109375 57.5625 
L 35.015625 36.71875 
Q 44 35.296875 48.703125 31.09375 
Q 53.421875 26.90625 53.421875 20.3125 
Q 53.421875 11.765625 46.4375 6.171875 
Q 39.453125 0.59375 27.875 0 
L 25 -14.703125 
L 20.125 -14.703125 
L 23 0 
Q 17.328125 0.140625 12.34375 1.28125 
Q 7.375 2.4375 3.328125 4.5 
L 4.984375 13.484375 
Q 9.46875 10.453125 14.34375 8.78125 
Q 19.234375 7.125 24.421875 6.9375 
L 28.71875 29.203125 
Q 19.484375 30.953125 15.28125 34.59375 
Q 11.078125 38.234375 11.078125 44.390625 
Q 11.078125 52.484375 17.796875 58.09375 
Q 24.515625 63.71875 35.5 64.59375 
L 37.796875 75.984375 
L 42.671875 75.984375 
L 40.53125 64.59375 
Q 44.921875 64.453125 49.09375 63.6875 
Q 53.265625 62.9375 56.984375 61.625 
z
" id="DejaVuSans-Oblique-36"/>
      </defs>
      <use xlink:href="#DejaVuSans-Oblique-36"/>
     </g>
    </g>
   </g>
   <g id="line2d_33">
    <path clip-path="url(#p69e0cf21f8)" d="M 76.587636 337.487383 
L 82.162062 337.575541 
L 83.555668 338.211733 
L 84.949275 336.904083 
L 86.342881 337.217037 
L 90.5237 336.579373 
L 91.917307 336.028397 
L 93.310913 334.329923 
L 96.098126 334.609082 
L 100.278945 334.960238 
L 101.672551 334.669323 
L 103.066158 334.860327 
L 104.459764 334.403385 
L 105.853371 335.282008 
L 110.03419 335.192384 
L 111.427796 337.84001 
L 112.821403 337.033378 
L 114.215009 334.996969 
L 119.789435 335.245277 
L 121.183041 334.684016 
L 122.576647 334.913222 
L 123.970254 336.397186 
L 125.36386 336.632269 
L 130.938286 335.365758 
L 132.331892 334.707525 
L 133.725499 334.676668 
L 139.299924 332.881222 
L 140.69353 332.744579 
L 143.480743 332.145115 
L 144.87435 332.88269 
L 149.055169 333.389587 
L 150.448775 333.083979 
L 151.842382 333.216213 
L 153.235988 326.604496 
L 154.629594 322.424422 
L 158.810414 322.486131 
L 160.20402 324.174323 
L 161.597626 324.352105 
L 162.991233 324.365327 
L 164.384839 324.601881 
L 168.565658 323.990664 
L 169.959265 324.027396 
L 172.746478 321.335691 
L 174.140084 321.100608 
L 178.320903 319.93254 
L 179.714509 319.221412 
L 181.108116 319.782673 
L 183.895329 318.892296 
L 188.076148 319.212595 
L 189.469754 317.812382 
L 190.863361 318.884948 
L 192.256967 318.501467 
L 193.650573 321.703008 
L 197.831393 321.218152 
L 199.224999 322.308352 
L 200.618605 321.96013 
L 203.405818 322.158484 
L 208.980244 321.238722 
L 211.767457 322.095307 
L 213.161063 321.284267 
L 217.341882 320.749454 
L 218.735489 319.381564 
L 220.129095 318.814423 
L 221.522701 317.788875 
L 222.916308 317.978408 
L 227.097127 314.582922 
L 228.490733 314.951714 
L 229.88434 312.871226 
L 231.277946 311.271189 
L 232.671552 311.043454 
L 236.852372 309.040834 
L 238.245978 308.154863 
L 241.033191 307.318848 
L 242.426797 307.401132 
L 246.607616 309.704944 
L 248.001223 309.1716 
L 250.788436 307.418759 
L 252.182042 305.545443 
L 256.362861 304.292154 
L 257.756468 301.717994 
L 259.150074 298.326913 
L 260.54368 299.913728 
L 261.937287 300.382426 
L 266.118106 293.519461 
L 267.511712 291.600594 
L 268.905319 294.453919 
L 270.298925 295.190023 
L 271.692531 295.629335 
L 277.266957 290.237109 
L 278.660563 286.95182 
L 280.05417 286.563932 
L 281.447776 287.648258 
L 285.628595 288.647362 
L 287.022202 287.342649 
L 288.415808 285.272447 
L 289.809415 276.483266 
L 291.203021 275.049261 
L 295.38384 256.032491 
L 296.777447 240.302478 
L 298.171053 262.688285 
L 299.564659 260.593101 
L 300.958266 260.723873 
L 305.139085 257.313697 
L 306.532691 256.858216 
L 307.926298 257.899939 
L 309.319904 252.506239 
L 310.71351 253.089544 
L 316.287936 244.513415 
L 317.681542 235.841779 
L 319.075149 238.487928 
L 320.468755 238.254319 
L 324.649574 248.129288 
L 326.043181 253.107177 
L 327.436787 256.208807 
L 328.830394 270.872122 
L 330.224 272.489786 
L 334.404819 261.377698 
L 335.798426 261.100002 
L 337.192032 260.513771 
L 338.585638 264.181062 
L 339.979245 267.27535 
L 344.160064 281.303946 
L 345.55367 275.819162 
L 346.947277 277.450048 
L 348.340883 288.275634 
L 349.73449 290.32233 
L 353.915309 305.242771 
L 355.308915 307.427576 
L 356.702521 317.562603 
L 358.096128 307.80371 
L 359.489734 307.819874 
L 363.670553 306.826644 
L 365.06416 296.437432 
L 366.457766 291.405182 
L 367.851373 293.034599 
L 369.244979 295.062194 
L 373.425798 296.859111 
L 374.819405 293.645816 
L 376.213011 299.881405 
L 377.606617 303.861659 
L 379.000224 300.10914 
L 383.181043 294.785971 
L 384.574649 290.494236 
L 385.968256 289.996152 
L 387.361862 286.446393 
L 392.936288 274.993426 
L 394.329894 266.333549 
L 395.7235 263.403819 
L 397.117107 261.144078 
L 398.510713 259.868757 
L 402.691532 260.975115 
L 404.085139 269.737851 
L 405.478745 263.06883 
L 406.872352 266.959451 
L 408.265958 264.091441 
L 412.446777 253.277609 
L 413.840384 257.631054 
L 415.23399 253.019013 
L 416.627596 255.756263 
L 418.021203 267.592706 
L 422.202022 258.796184 
L 423.595628 257.764762 
L 424.989235 255.653414 
L 426.382841 256.026617 
L 427.776448 250.240624 
L 431.957267 251.435146 
L 433.350873 251.711363 
L 434.74448 254.422169 
L 436.138086 252.604682 
L 437.531692 253.215899 
L 441.712511 251.091335 
L 443.106118 251.91706 
L 444.499724 250.807765 
L 445.893331 249.03876 
L 447.286937 250.613816 
L 452.861363 250.321435 
L 454.254969 250.121611 
L 455.648575 252.240302 
L 457.042182 247.951503 
L 461.223001 238.680409 
L 462.616607 241.110581 
L 464.010214 240.904884 
L 465.40382 243.63478 
L 470.978246 231.06665 
L 472.371852 232.425718 
L 473.765459 220.028019 
L 475.159065 227.699082 
L 476.552671 233.217657 
L 480.733491 225.045579 
L 482.127097 226.334128 
L 483.520703 224.914808 
L 484.91431 223.126701 
L 486.307916 223.576309 
L 490.488735 224.543085 
L 491.882342 223.447005 
L 493.275948 229.460733 
L 494.669554 225.768456 
L 496.063161 229.623823 
L 500.24398 222.334773 
L 501.637586 211.982285 
L 503.031193 206.131657 
L 504.424799 193.050741 
L 509.999225 169.113374 
L 511.392831 166.427565 
L 512.786438 169.950869 
L 514.180044 165.778146 
L 515.57365 143.68472 
L 519.75447 150.676983 
L 521.148076 147.776644 
L 522.541682 143.484897 
L 523.935289 150.150981 
L 525.328895 150.121589 
L 529.509714 129.234434 
L 530.903321 140.201076 
L 532.296927 136.67923 
L 533.690533 148.324661 
L 535.08414 162.439958 
L 539.264959 144.426686 
L 540.658565 153.69926 
L 542.052172 150.375779 
L 543.445778 152.083076 
L 544.839385 160.418231 
L 549.020204 152.448914 
L 550.41381 152.155064 
L 551.807417 152.445977 
L 553.201023 151.775999 
L 554.594629 157.193194 
L 558.775449 162.209286 
L 560.169055 168.700522 
L 561.562661 142.199285 
L 562.956268 132.466824 
L 564.349874 128.101632 
L 568.530693 100.930416 
L 569.9243 93.371013 
L 571.317906 94.628712 
L 572.711512 76.512603 
L 574.105119 69.438062 
L 578.285938 74.695116 
L 579.679544 73.352201 
L 581.073151 54.276658 
L 582.466757 41.702642 
L 583.860364 45.427248 
L 583.860364 45.427248 
" style="fill:none;stroke:#e24a33;stroke-linecap:square;stroke-width:1.5;"/>
   </g>
   <g id="line2d_34">
    <path clip-path="url(#p69e0cf21f8)" d="M 76.587636 337.487383 
L 82.162062 337.531462 
L 83.555668 337.758219 
L 84.949275 337.544685 
L 91.917307 337.143364 
L 94.704519 336.538234 
L 96.098126 336.345319 
L 100.278945 336.092605 
L 105.853371 335.02327 
L 110.03419 334.884571 
L 114.215009 335.38471 
L 119.789435 335.458321 
L 122.576647 335.46508 
L 125.36386 335.799486 
L 129.544679 335.851057 
L 132.331892 335.371047 
L 135.119105 335.254387 
L 139.299924 335.017981 
L 142.087137 334.579845 
L 144.87435 333.77968 
L 149.055169 333.547829 
L 151.842382 333.17052 
L 153.235988 332.363302 
L 154.629594 331.18436 
L 158.810414 330.144851 
L 162.991233 327.697927 
L 164.384839 326.869847 
L 168.565658 325.929954 
L 169.959265 325.024296 
L 171.352871 323.96789 
L 172.746478 323.44101 
L 174.140084 323.308628 
L 178.320903 323.053269 
L 183.895329 321.024206 
L 188.076148 320.546399 
L 189.469754 319.924898 
L 192.256967 319.264755 
L 197.831393 319.453556 
L 200.618605 319.979996 
L 203.405818 320.265181 
L 207.586637 320.519365 
L 208.980244 320.721978 
L 211.767457 321.432223 
L 213.161063 321.710503 
L 217.341882 321.615148 
L 218.735489 321.431489 
L 221.522701 320.664971 
L 222.916308 320.246963 
L 227.097127 319.561842 
L 228.490733 318.933141 
L 229.88434 318.049816 
L 232.671552 315.943323 
L 236.852372 314.772461 
L 238.245978 313.649791 
L 241.033191 312.500233 
L 242.426797 311.461459 
L 246.607616 310.634113 
L 248.001223 310.092981 
L 250.788436 309.339685 
L 252.182042 308.607107 
L 256.362861 307.909203 
L 257.756468 306.976657 
L 259.150074 305.905265 
L 260.54368 305.081152 
L 261.937287 304.387509 
L 266.118106 302.999342 
L 267.511712 301.188907 
L 268.905319 299.717139 
L 270.298925 298.494266 
L 271.692531 297.502655 
L 277.266957 296.09715 
L 278.660563 294.620533 
L 281.447776 292.217688 
L 285.628595 291.044181 
L 288.415808 289.793685 
L 289.809415 287.99662 
L 291.203021 285.982544 
L 295.38384 282.02286 
L 296.777447 277.029396 
L 299.564659 272.00596 
L 300.958266 269.313521 
L 305.139085 266.180155 
L 306.532691 263.131712 
L 307.926298 260.394461 
L 310.71351 255.800786 
L 316.287936 254.648879 
L 317.681542 254.202809 
L 320.468755 249.548895 
L 326.043181 247.868784 
L 327.436787 247.803844 
L 328.830394 249.101062 
L 330.224 251.099416 
L 334.404819 251.928232 
L 335.798426 253.58689 
L 338.585638 258.623403 
L 339.979245 261.525506 
L 344.160064 264.842972 
L 346.947277 269.238295 
L 349.73449 272.7619 
L 353.915309 277.148408 
L 355.308915 281.781165 
L 356.702521 287.486048 
L 359.489734 295.902765 
L 363.670553 298.455035 
L 365.06416 300.516862 
L 366.457766 301.912376 
L 369.244979 302.862258 
L 373.425798 302.023892 
L 374.819405 300.645716 
L 376.213011 298.877597 
L 377.606617 298.483392 
L 379.000224 297.712318 
L 383.181043 296.508251 
L 384.574649 295.913931 
L 385.968256 295.773028 
L 387.361862 295.114208 
L 392.936288 293.107331 
L 395.7235 287.030575 
L 397.117107 283.156842 
L 398.510713 278.757552 
L 402.691532 274.84415 
L 404.085139 272.339338 
L 405.478745 269.596797 
L 408.265958 265.057632 
L 412.446777 262.88605 
L 413.840384 262.0158 
L 415.23399 260.97732 
L 416.627596 260.438538 
L 418.021203 261.210933 
L 422.202022 260.99304 
L 423.595628 259.795731 
L 424.989235 259.05419 
L 426.382841 257.960906 
L 427.776448 256.575825 
L 431.957267 256.391578 
L 433.350873 255.799609 
L 434.74448 255.939925 
L 436.138086 255.624767 
L 437.531692 254.187086 
L 441.712511 253.416601 
L 445.893331 251.648481 
L 447.286937 251.6858 
L 452.861363 251.574428 
L 455.648575 251.197267 
L 461.223001 249.278399 
L 464.010214 247.179106 
L 465.40382 246.461808 
L 466.797427 245.60875 
L 470.978246 243.654033 
L 472.371852 241.864461 
L 473.765459 238.855102 
L 475.159065 236.40098 
L 476.552671 234.927596 
L 480.733491 233.564113 
L 483.520703 230.48746 
L 484.91431 228.436652 
L 486.307916 226.743465 
L 490.488735 226.091109 
L 491.882342 225.193237 
L 493.275948 226.136509 
L 494.669554 225.943446 
L 496.063161 225.584063 
L 500.24398 225.312982 
L 501.637586 223.877798 
L 503.031193 221.999483 
L 504.424799 218.991887 
L 509.999225 213.545593 
L 514.180044 196.016169 
L 515.57365 187.807795 
L 519.75447 179.913111 
L 521.148076 172.457298 
L 522.541682 165.607559 
L 523.935289 160.009492 
L 525.328895 155.716577 
L 529.509714 151.728683 
L 530.903321 149.106034 
L 532.296927 145.77887 
L 533.690533 144.033521 
L 535.08414 145.909045 
L 539.264959 145.284016 
L 542.052172 146.565365 
L 543.445778 146.758575 
L 544.839385 147.788239 
L 549.020204 150.109687 
L 550.41381 151.305086 
L 551.807417 152.881761 
L 553.201023 153.226894 
L 554.594629 152.702218 
L 558.775449 154.480478 
L 560.169055 155.980604 
L 561.562661 155.162955 
L 562.956268 153.20133 
L 564.349874 149.96967 
L 568.530693 144.81782 
L 571.317906 133.157688 
L 572.711512 125.631349 
L 574.105119 116.855836 
L 578.285938 108.104419 
L 581.073151 89.777324 
L 582.466757 80.700905 
L 583.860364 72.433467 
L 583.860364 72.433467 
" style="fill:none;stroke:#348abd;stroke-linecap:square;stroke-width:1.5;"/>
   </g>
   <g id="patch_3">
    <path d="M 51.224 353.037188 
L 51.224 26.877187 
" style="fill:none;stroke:#ffffff;stroke-linecap:square;stroke-linejoin:miter;"/>
   </g>
   <g id="patch_4">
    <path d="M 609.224 353.037188 
L 609.224 26.877187 
" style="fill:none;stroke:#ffffff;stroke-linecap:square;stroke-linejoin:miter;"/>
   </g>
   <g id="patch_5">
    <path d="M 51.224 353.037188 
L 609.224 353.037188 
" style="fill:none;stroke:#ffffff;stroke-linecap:square;stroke-linejoin:miter;"/>
   </g>
   <g id="patch_6">
    <path d="M 51.224 26.877187 
L 609.224 26.877187 
" style="fill:none;stroke:#ffffff;stroke-linecap:square;stroke-linejoin:miter;"/>
   </g>
   <g id="text_19">
    <!-- Adj_Close &amp; 10ma -->
    <g transform="translate(248.519469 20.877187)scale(0.18 -0.18)">
     <defs>
      <path d="M 34.1875 63.1875 
L 20.796875 26.90625 
L 47.609375 26.90625 
z
M 28.609375 72.90625 
L 39.796875 72.90625 
L 67.578125 0 
L 57.328125 0 
L 50.6875 18.703125 
L 17.828125 18.703125 
L 11.1875 0 
L 0.78125 0 
z
" id="DejaVuSans-65"/>
      <path d="M 45.40625 46.390625 
L 45.40625 75.984375 
L 54.390625 75.984375 
L 54.390625 0 
L 45.40625 0 
L 45.40625 8.203125 
Q 42.578125 3.328125 38.25 0.953125 
Q 33.9375 -1.421875 27.875 -1.421875 
Q 17.96875 -1.421875 11.734375 6.484375 
Q 5.515625 14.40625 5.515625 27.296875 
Q 5.515625 40.1875 11.734375 48.09375 
Q 17.96875 56 27.875 56 
Q 33.9375 56 38.25 53.625 
Q 42.578125 51.265625 45.40625 46.390625 
z
M 14.796875 27.296875 
Q 14.796875 17.390625 18.875 11.75 
Q 22.953125 6.109375 30.078125 6.109375 
Q 37.203125 6.109375 41.296875 11.75 
Q 45.40625 17.390625 45.40625 27.296875 
Q 45.40625 37.203125 41.296875 42.84375 
Q 37.203125 48.484375 30.078125 48.484375 
Q 22.953125 48.484375 18.875 42.84375 
Q 14.796875 37.203125 14.796875 27.296875 
z
" id="DejaVuSans-100"/>
      <path d="M 9.421875 54.6875 
L 18.40625 54.6875 
L 18.40625 -0.984375 
Q 18.40625 -11.421875 14.421875 -16.109375 
Q 10.453125 -20.796875 1.609375 -20.796875 
L -1.8125 -20.796875 
L -1.8125 -13.1875 
L 0.59375 -13.1875 
Q 5.71875 -13.1875 7.5625 -10.8125 
Q 9.421875 -8.453125 9.421875 -0.984375 
z
M 9.421875 75.984375 
L 18.40625 75.984375 
L 18.40625 64.59375 
L 9.421875 64.59375 
z
" id="DejaVuSans-106"/>
      <path d="M 50.984375 -16.609375 
L 50.984375 -23.578125 
L -0.984375 -23.578125 
L -0.984375 -16.609375 
z
" id="DejaVuSans-95"/>
      <path d="M 64.40625 67.28125 
L 64.40625 56.890625 
Q 59.421875 61.53125 53.78125 63.8125 
Q 48.140625 66.109375 41.796875 66.109375 
Q 29.296875 66.109375 22.65625 58.46875 
Q 16.015625 50.828125 16.015625 36.375 
Q 16.015625 21.96875 22.65625 14.328125 
Q 29.296875 6.6875 41.796875 6.6875 
Q 48.140625 6.6875 53.78125 8.984375 
Q 59.421875 11.28125 64.40625 15.921875 
L 64.40625 5.609375 
Q 59.234375 2.09375 53.4375 0.328125 
Q 47.65625 -1.421875 41.21875 -1.421875 
Q 24.65625 -1.421875 15.125 8.703125 
Q 5.609375 18.84375 5.609375 36.375 
Q 5.609375 53.953125 15.125 64.078125 
Q 24.65625 74.21875 41.21875 74.21875 
Q 47.75 74.21875 53.53125 72.484375 
Q 59.328125 70.75 64.40625 67.28125 
z
" id="DejaVuSans-67"/>
      <path d="M 9.421875 75.984375 
L 18.40625 75.984375 
L 18.40625 0 
L 9.421875 0 
z
" id="DejaVuSans-108"/>
      <path d="M 30.609375 48.390625 
Q 23.390625 48.390625 19.1875 42.75 
Q 14.984375 37.109375 14.984375 27.296875 
Q 14.984375 17.484375 19.15625 11.84375 
Q 23.34375 6.203125 30.609375 6.203125 
Q 37.796875 6.203125 41.984375 11.859375 
Q 46.1875 17.53125 46.1875 27.296875 
Q 46.1875 37.015625 41.984375 42.703125 
Q 37.796875 48.390625 30.609375 48.390625 
z
M 30.609375 56 
Q 42.328125 56 49.015625 48.375 
Q 55.71875 40.765625 55.71875 27.296875 
Q 55.71875 13.875 49.015625 6.21875 
Q 42.328125 -1.421875 30.609375 -1.421875 
Q 18.84375 -1.421875 12.171875 6.21875 
Q 5.515625 13.875 5.515625 27.296875 
Q 5.515625 40.765625 12.171875 48.375 
Q 18.84375 56 30.609375 56 
z
" id="DejaVuSans-111"/>
      <path d="M 44.28125 53.078125 
L 44.28125 44.578125 
Q 40.484375 46.53125 36.375 47.5 
Q 32.28125 48.484375 27.875 48.484375 
Q 21.1875 48.484375 17.84375 46.4375 
Q 14.5 44.390625 14.5 40.28125 
Q 14.5 37.15625 16.890625 35.375 
Q 19.28125 33.59375 26.515625 31.984375 
L 29.59375 31.296875 
Q 39.15625 29.25 43.1875 25.515625 
Q 47.21875 21.78125 47.21875 15.09375 
Q 47.21875 7.46875 41.1875 3.015625 
Q 35.15625 -1.421875 24.609375 -1.421875 
Q 20.21875 -1.421875 15.453125 -0.5625 
Q 10.6875 0.296875 5.421875 2 
L 5.421875 11.28125 
Q 10.40625 8.6875 15.234375 7.390625 
Q 20.0625 6.109375 24.8125 6.109375 
Q 31.15625 6.109375 34.5625 8.28125 
Q 37.984375 10.453125 37.984375 14.40625 
Q 37.984375 18.0625 35.515625 20.015625 
Q 33.0625 21.96875 24.703125 23.78125 
L 21.578125 24.515625 
Q 13.234375 26.265625 9.515625 29.90625 
Q 5.8125 33.546875 5.8125 39.890625 
Q 5.8125 47.609375 11.28125 51.796875 
Q 16.75 56 26.8125 56 
Q 31.78125 56 36.171875 55.265625 
Q 40.578125 54.546875 44.28125 53.078125 
z
" id="DejaVuSans-115"/>
      <path d="M 56.203125 29.59375 
L 56.203125 25.203125 
L 14.890625 25.203125 
Q 15.484375 15.921875 20.484375 11.0625 
Q 25.484375 6.203125 34.421875 6.203125 
Q 39.59375 6.203125 44.453125 7.46875 
Q 49.3125 8.734375 54.109375 11.28125 
L 54.109375 2.78125 
Q 49.265625 0.734375 44.1875 -0.34375 
Q 39.109375 -1.421875 33.890625 -1.421875 
Q 20.796875 -1.421875 13.15625 6.1875 
Q 5.515625 13.8125 5.515625 26.8125 
Q 5.515625 40.234375 12.765625 48.109375 
Q 20.015625 56 32.328125 56 
Q 43.359375 56 49.78125 48.890625 
Q 56.203125 41.796875 56.203125 29.59375 
z
M 47.21875 32.234375 
Q 47.125 39.59375 43.09375 43.984375 
Q 39.0625 48.390625 32.421875 48.390625 
Q 24.90625 48.390625 20.390625 44.140625 
Q 15.875 39.890625 15.1875 32.171875 
z
" id="DejaVuSans-101"/>
      <path id="DejaVuSans-32"/>
      <path d="M 24.3125 39.203125 
Q 19.875 35.25 17.796875 31.3125 
Q 15.71875 27.390625 15.71875 23.09375 
Q 15.71875 15.96875 20.890625 11.234375 
Q 26.078125 6.5 33.890625 6.5 
Q 38.53125 6.5 42.578125 8.03125 
Q 46.625 9.578125 50.203125 12.703125 
z
M 31.203125 44.671875 
L 56 19.28125 
Q 58.890625 23.640625 60.5 28.59375 
Q 62.109375 33.546875 62.40625 39.109375 
L 71.484375 39.109375 
Q 70.90625 32.671875 68.359375 26.359375 
Q 65.828125 20.0625 61.28125 13.921875 
L 74.90625 0 
L 62.59375 0 
L 55.609375 7.171875 
Q 50.53125 2.828125 44.96875 0.703125 
Q 39.40625 -1.421875 33.015625 -1.421875 
Q 21.234375 -1.421875 13.765625 5.296875 
Q 6.296875 12.015625 6.296875 22.515625 
Q 6.296875 28.765625 9.5625 34.25 
Q 12.84375 39.75 19.390625 44.578125 
Q 17.046875 47.65625 15.8125 50.703125 
Q 14.59375 53.765625 14.59375 56.6875 
Q 14.59375 64.59375 20.015625 69.40625 
Q 25.4375 74.21875 34.421875 74.21875 
Q 38.484375 74.21875 42.5 73.34375 
Q 46.53125 72.46875 50.6875 70.703125 
L 50.6875 61.8125 
Q 46.4375 64.109375 42.578125 65.296875 
Q 38.71875 66.5 35.40625 66.5 
Q 30.28125 66.5 27.078125 63.78125 
Q 23.875 61.078125 23.875 56.78125 
Q 23.875 54.296875 25.3125 51.78125 
Q 26.765625 49.265625 31.203125 44.671875 
z
" id="DejaVuSans-38"/>
      <path d="M 52 44.1875 
Q 55.375 50.25 60.0625 53.125 
Q 64.75 56 71.09375 56 
Q 79.640625 56 84.28125 50.015625 
Q 88.921875 44.046875 88.921875 33.015625 
L 88.921875 0 
L 79.890625 0 
L 79.890625 32.71875 
Q 79.890625 40.578125 77.09375 44.375 
Q 74.3125 48.1875 68.609375 48.1875 
Q 61.625 48.1875 57.5625 43.546875 
Q 53.515625 38.921875 53.515625 30.90625 
L 53.515625 0 
L 44.484375 0 
L 44.484375 32.71875 
Q 44.484375 40.625 41.703125 44.40625 
Q 38.921875 48.1875 33.109375 48.1875 
Q 26.21875 48.1875 22.15625 43.53125 
Q 18.109375 38.875 18.109375 30.90625 
L 18.109375 0 
L 9.078125 0 
L 9.078125 54.6875 
L 18.109375 54.6875 
L 18.109375 46.1875 
Q 21.1875 51.21875 25.484375 53.609375 
Q 29.78125 56 35.6875 56 
Q 41.65625 56 45.828125 52.96875 
Q 50 49.953125 52 44.1875 
z
" id="DejaVuSans-109"/>
      <path d="M 34.28125 27.484375 
Q 23.390625 27.484375 19.1875 25 
Q 14.984375 22.515625 14.984375 16.5 
Q 14.984375 11.71875 18.140625 8.90625 
Q 21.296875 6.109375 26.703125 6.109375 
Q 34.1875 6.109375 38.703125 11.40625 
Q 43.21875 16.703125 43.21875 25.484375 
L 43.21875 27.484375 
z
M 52.203125 31.203125 
L 52.203125 0 
L 43.21875 0 
L 43.21875 8.296875 
Q 40.140625 3.328125 35.546875 0.953125 
Q 30.953125 -1.421875 24.3125 -1.421875 
Q 15.921875 -1.421875 10.953125 3.296875 
Q 6 8.015625 6 15.921875 
Q 6 25.140625 12.171875 29.828125 
Q 18.359375 34.515625 30.609375 34.515625 
L 43.21875 34.515625 
L 43.21875 35.40625 
Q 43.21875 41.609375 39.140625 45 
Q 35.0625 48.390625 27.6875 48.390625 
Q 23 48.390625 18.546875 47.265625 
Q 14.109375 46.140625 10.015625 43.890625 
L 10.015625 52.203125 
Q 14.9375 54.109375 19.578125 55.046875 
Q 24.21875 56 28.609375 56 
Q 40.484375 56 46.34375 49.84375 
Q 52.203125 43.703125 52.203125 31.203125 
z
" id="DejaVuSans-97"/>
     </defs>
     <use xlink:href="#DejaVuSans-65"/>
     <use x="66.658203" xlink:href="#DejaVuSans-100"/>
     <use x="130.134766" xlink:href="#DejaVuSans-106"/>
     <use x="157.917969" xlink:href="#DejaVuSans-95"/>
     <use x="207.917969" xlink:href="#DejaVuSans-67"/>
     <use x="277.742188" xlink:href="#DejaVuSans-108"/>
     <use x="305.525391" xlink:href="#DejaVuSans-111"/>
     <use x="366.707031" xlink:href="#DejaVuSans-115"/>
     <use x="418.806641" xlink:href="#DejaVuSans-101"/>
     <use x="480.330078" xlink:href="#DejaVuSans-32"/>
     <use x="512.117188" xlink:href="#DejaVuSans-38"/>
     <use x="590.095703" xlink:href="#DejaVuSans-32"/>
     <use x="621.882812" xlink:href="#DejaVuSans-49"/>
     <use x="685.505859" xlink:href="#DejaVuSans-48"/>
     <use x="749.128906" xlink:href="#DejaVuSans-109"/>
     <use x="846.541016" xlink:href="#DejaVuSans-97"/>
    </g>
   </g>
   <g id="legend_1">
    <g id="patch_7">
     <path d="M 58.224 64.233437 
L 136.4365 64.233437 
Q 138.4365 64.233437 138.4365 62.233437 
L 138.4365 33.877187 
Q 138.4365 31.877187 136.4365 31.877187 
L 58.224 31.877187 
Q 56.224 31.877187 56.224 33.877187 
L 56.224 62.233437 
Q 56.224 64.233437 58.224 64.233437 
z
" style="fill:#e5e5e5;opacity:0.8;stroke:#cccccc;stroke-linejoin:miter;stroke-width:0.5;"/>
    </g>
    <g id="line2d_35">
     <path d="M 60.224 39.975625 
L 80.224 39.975625 
" style="fill:none;stroke:#e24a33;stroke-linecap:square;stroke-width:1.5;"/>
    </g>
    <g id="line2d_36"/>
    <g id="text_20">
     <!-- Adj Close -->
     <g transform="translate(88.224 43.475625)scale(0.1 -0.1)">
      <use xlink:href="#DejaVuSans-65"/>
      <use x="66.658203" xlink:href="#DejaVuSans-100"/>
      <use x="130.134766" xlink:href="#DejaVuSans-106"/>
      <use x="157.917969" xlink:href="#DejaVuSans-32"/>
      <use x="189.705078" xlink:href="#DejaVuSans-67"/>
      <use x="259.529297" xlink:href="#DejaVuSans-108"/>
      <use x="287.3125" xlink:href="#DejaVuSans-111"/>
      <use x="348.494141" xlink:href="#DejaVuSans-115"/>
      <use x="400.59375" xlink:href="#DejaVuSans-101"/>
     </g>
    </g>
    <g id="line2d_37">
     <path d="M 60.224 54.65375 
L 80.224 54.65375 
" style="fill:none;stroke:#348abd;stroke-linecap:square;stroke-width:1.5;"/>
    </g>
    <g id="line2d_38"/>
    <g id="text_21">
     <!-- 10ma -->
     <g transform="translate(88.224 58.15375)scale(0.1 -0.1)">
      <use xlink:href="#DejaVuSans-49"/>
      <use x="63.623047" xlink:href="#DejaVuSans-48"/>
      <use x="127.246094" xlink:href="#DejaVuSans-109"/>
      <use x="224.658203" xlink:href="#DejaVuSans-97"/>
     </g>
    </g>
   </g>
  </g>
 </g>
 <defs>
  <clipPath id="p69e0cf21f8">
   <rect height="326.16" width="558" x="51.224" y="26.877187"/>
  </clipPath>
 </defs>
</svg>
